<?xml version="1.0" ?><svg id="Layer_1" style="enable-background:new 0 0 512 512;" version="1.1" viewBox="0 0 512 512" xml:space="preserve" xmlns="http://www.w3.org/2000/svg" xmlns:xlink="http://www.w3.org/1999/xlink"><style type="text/css">
	.st0{fill:#595959;}
	.st1{fill:#3F3F3F;}
	.st2{fill:#EBDEE5;}
	.st3{fill:#017068;}
	.st4{fill:#C6BEC3;}
	.st5{fill:#F29F18;}
	.st6{fill:#F4BC62;}
	.st7{fill:#734B0B;}
	.st8{fill:#FFFFFF;}
	.st9{fill:none;stroke:#0D0D0D;stroke-width:10;stroke-linejoin:round;stroke-miterlimit:10;}
	.st10{fill:#00BFB6;}
	.st11{fill:#999999;}
	.st12{fill:#F22E24;}
	.st13{fill:#F4756E;}
	.st14{fill:#3DCAC3;}
</style><g id="XMLID_4538_"><rect class="st0" height="209.1" id="XMLID_3390_" width="198.1" x="138.3" y="106.1"/><rect class="st1" height="209.1" id="XMLID_3391_" width="173.6" x="162.8" y="106.1"/><path class="st2" d="M256,507.1c92.6,0,173.5-50.1,217-124.7c-43.2-75-124.2-125.5-217-125.5S82.2,307.3,39,382.4   C82.5,457,163.4,507.1,256,507.1z" id="XMLID_3417_"/><path class="st3" d="M183,267.7l73.1,165.9L329,267.6c-23.1-7-47.6-10.8-73-10.8   C230.6,256.8,206.1,260.6,183,267.7L183,267.7z" id="XMLID_927_"/><path class="st4" d="M261,297h-10v210c2,0,3.4,0.1,5,0.1s3,0,5-0.1V297z" id="XMLID_697_"/><polygon class="st3" id="XMLID_695_" points="251,422.2 256.1,433.6 261,422.6 261,297 251,297  "/><polygon class="st5" id="XMLID_3414_" points="255.9,297.2 255.9,297.2 227.4,268.7 227.4,228.9 284.3,228.9 284.3,268.7  "/><path class="st5" d="M187.3,155.1h-24.5c-13.5,0-24.5-11-24.5-24.5v0c0-13.5,11-24.5,24.5-24.5h24.5V155.1z" id="XMLID_3401_"/><path class="st6" d="M256,238.8L256,238.8c-44.4,0-80.4-36-80.4-80.4v-55.9c0-44.4,36-80.4,80.4-80.4h0   c44.4,0,80.4,36,80.4,80.4v55.9C336.4,202.8,300.4,238.8,256,238.8z" id="XMLID_3410_"/><rect class="st7" height="9.8" id="XMLID_3405_" width="9.8" x="157.9" y="125.7"/><path class="st5" d="M255.8,22h0.1c-4.2,0-8.2,0.4-12.2,1c38.6,5.9,68.3,39.3,68.3,79.5v55.9   c0,40.3-29.6,73.7-68.2,79.6c4,0.6,8.1,1,12.2,1h-0.2c44.4,0,80.2-36.2,80.2-80.6v-55.9C336,58.1,300.2,22,255.8,22z" id="XMLID_2619_"/><circle class="st8" cx="230" cy="144.7" id="XMLID_3389_" r="26"/><circle class="st8" cx="282" cy="144.7" id="XMLID_3388_" r="26"/><line class="st9" id="XMLID_3420_" x1="334" x2="334" y1="269.2" y2="269.2"/><path class="st10" d="M255.9,297.2L234.1,319l-51.2-51.3c14.4-4.4,29-7.5,44.6-9.2v10.2L255.9,297.2L255.9,297.2z   " id="XMLID_3419_"/><path class="st10" d="M328.8,267.6l-51.3,51.2L256,297.2l28.5-28.5v-10.2C299.2,260.1,314.5,263.2,328.8,267.6z" id="XMLID_3418_"/><g id="XMLID_3409_"><path class="st11" d="M241,154h-10v-14h-7v-10h12.4c2.7,0,4.6,2.6,4.6,5.4V154z" id="XMLID_1569_"/></g><g id="XMLID_3408_"><path class="st11" d="M281,154h-10v-18.6c0-2.7,1.9-5.4,4.6-5.4H288v10h-7V154z" id="XMLID_1568_"/></g><g id="XMLID_3404_"><path class="st12" d="M255.9,194.6c-1.3,0-2.5-0.5-3.5-1.4L240.3,181l6.9-6.9l8.7,8.7l8.6-8.6l6.9,6.9    l-12.1,12.1C258.4,194.1,257.2,194.6,255.9,194.6z" id="XMLID_1566_"/></g><path class="st11" d="M229.5,4.9H284v45.9c0,30.5-24.7,55.3-55.3,55.3h-90.5v-10C138.3,45.7,179.1,4.9,229.5,4.9z   " id="XMLID_3398_"/><path class="st0" d="M254,4.9h30v45.9c0,30.5-24.7,55.3-55.3,55.3h-65.9v-10C162.8,45.7,203.6,4.9,254,4.9z" id="XMLID_704_"/><path class="st0" d="M284,4.9L284,4.9l0,45.9c0,30.5,24.7,55.3,55.3,55.3h34.1V94.3C373.5,44.9,333.4,4.9,284,4.9   z" id="XMLID_3395_"/><path class="st1" d="M336.4,418.8L336.4,418.8l0-312.7h37v275.7C373.5,402.2,356.9,418.8,336.4,418.8z" id="XMLID_709_"/><path class="st0" d="M336.4,319L336.4,319l0-212.9h37v175.8C373.5,302.4,356.9,319,336.4,319z" id="XMLID_744_"/><path class="st8" d="M78.5,330.7c-15.3,15.4-28.6,32.7-39.5,51.7c10.9,18.7,24.2,35.9,39.5,51.2V330.7z" id="XMLID_1906_"/><path class="st4" d="M382,290.6v136c0,16.7-14,30.4-30.7,30.4h-246c42,31,94.2,50.2,150.7,50.2   c92.6,0,173.7-50.2,217.2-124.8C451.3,344.4,419,312.6,382,290.6z" id="XMLID_1902_"/><path class="st12" d="M208,384h-72.7c-10,0-18.3,8.6-18.3,18.6v62.7c32,21.2,69,35.3,109,40.1V402.6   C226,392.6,218,384,208,384z" id="XMLID_1858_"/><path class="st13" d="M175.1,384h-39.8c-10,0-18.3,8.6-18.3,18.6v62.7c23,15.3,49,26.9,76,33.9v-96.6   C193,392.6,185.1,384,175.1,384z" id="XMLID_1405_"/><path class="st2" d="M117,465.3c5,3,9.2,5.7,13.9,8.7H226v-55H117V465.3z" id="XMLID_1153_"/><rect class="st4" height="54.9" id="XMLID_512_" width="32.9" x="193.2" y="418.8"/><rect class="st14" height="24.4" id="XMLID_1432_" width="66.5" x="138.4" y="360.1"/><g id="XMLID_1431_"><rect class="st3" height="24" id="XMLID_696_" width="10" x="156" y="360"/></g><g id="XMLID_1428_"><rect class="st3" height="24" id="XMLID_676_" width="9" x="179" y="360"/></g><path class="st8" d="M134.1,462L134.1,462c-3.5,0-6.3-2.8-6.3-6.3v-18.9c0-3.5,2.8-6.3,6.3-6.3h0   c3.5,0,6.3,2.8,6.3,6.3v18.9C140.3,459.2,137.5,462,134.1,462z" id="XMLID_4213_"/><g id="XMLID_4216_"><g id="XMLID_40_"><g id="XMLID_43_"><rect class="st12" height="26" id="XMLID_44_" width="10" x="167" y="433"/></g><g id="XMLID_41_"><rect class="st12" height="10" id="XMLID_42_" width="26" x="158" y="441"/></g></g></g></g></svg>