<?xml version="1.0" ?><svg viewBox="0 0 60 60" xmlns="http://www.w3.org/2000/svg"><defs><style>.a{fill:#4f5564;}.b{fill:#e5bd02;}.c{fill:#f8cb00;}.d{fill:#fdd303;stroke:#ffe600;stroke-miterlimit:10;stroke-width:0.25px;}.e{fill:#e8c002;}.f{fill:#957a01;}</style></defs><title/><circle class="a" cx="30" cy="30" r="30"/><rect class="b" height="46.25" rx="4.125" ry="4.125" width="20.25" x="19.875" y="6.875"/><path class="c" d="M36,7a4,4,0,0,1,4,4V49a4,4,0,0,1-4,4H24a4,4,0,0,1-4-4V11a4,4,0,0,1,4-4H36m0-.25H24A4.25482,4.25482,0,0,0,19.75,11V49A4.25483,4.25483,0,0,0,24,53.25H36A4.25483,4.25483,0,0,0,40.25,49V11A4.25482,4.25482,0,0,0,36,6.75Z"/><rect class="d" height="20" rx="4" ry="4" width="46" x="7" y="20"/><circle class="e" cx="22.75" cy="23.25" r="1.25"/><circle class="f" cx="22.75" cy="23.25" r="0.5"/><circle class="e" cx="27.58333" cy="23.25" r="1.25"/><circle class="f" cx="27.58333" cy="23.25" r="0.5"/><circle class="e" cx="32.41667" cy="23.25" r="1.25"/><circle class="f" cx="32.41667" cy="23.25" r="0.5"/><circle class="e" cx="37.25" cy="23.25" r="1.25"/><circle class="f" cx="37.25" cy="23.25" r="0.5"/><circle class="e" cx="22.75" cy="27.75" r="1.25"/><circle class="f" cx="22.75" cy="27.75" r="0.5"/><circle class="e" cx="27.58333" cy="27.75" r="1.25"/><circle class="f" cx="27.58333" cy="27.75" r="0.5"/><circle class="e" cx="32.41667" cy="27.75" r="1.25"/><circle class="f" cx="32.41667" cy="27.75" r="0.5"/><circle class="e" cx="37.25" cy="27.75" r="1.25"/><circle class="f" cx="37.25" cy="27.75" r="0.5"/><circle class="e" cx="22.75" cy="32.25" r="1.25"/><circle class="f" cx="22.75" cy="32.25" r="0.5"/><circle class="e" cx="27.58333" cy="32.25" r="1.25"/><circle class="f" cx="27.58333" cy="32.25" r="0.5"/><circle class="e" cx="32.41667" cy="32.25" r="1.25"/><circle class="f" cx="32.41667" cy="32.25" r="0.5"/><circle class="e" cx="37.25" cy="32.25" r="1.25"/><circle class="f" cx="37.25" cy="32.25" r="0.5"/><circle class="e" cx="22.75" cy="36.75" r="1.25"/><circle class="f" cx="22.75" cy="36.75" r="0.5"/><circle class="e" cx="27.58333" cy="36.75" r="1.25"/><circle class="f" cx="27.58333" cy="36.75" r="0.5"/><circle class="e" cx="32.41667" cy="36.75" r="1.25"/><circle class="f" cx="32.41667" cy="36.75" r="0.5"/><circle class="e" cx="37.25" cy="36.75" r="1.25"/><circle class="f" cx="37.25" cy="36.75" r="0.5"/><rect class="b" height="17" width="1" x="19" y="21"/><rect class="b" height="17" width="1" x="40" y="21"/></svg>