<?xml version="1.0" ?><svg id="Layer_1" style="enable-background:new 0 0 512 512;" version="1.1" viewBox="0 0 512 512" xml:space="preserve" xmlns="http://www.w3.org/2000/svg" xmlns:xlink="http://www.w3.org/1999/xlink"><style type="text/css">
	.st0{fill:#EBDEE5;}
	.st1{fill:#FFFFFF;}
	.st2{fill:#C6BEC3;}
	.st3{fill:#F29F18;}
	.st4{fill:#F4BC62;}
	.st5{fill:#595959;}
	.st6{fill:#734B0B;}
	.st7{fill:#E2F200;}
	.st8{fill:#3F3F3F;}
	.st9{fill:#6B7300;}
</style><g id="XMLID_5258_"><path class="st0" d="M256,507.1c92.6,0,173.5-50.1,217-124.7c-43.2-75-124.2-125.5-217-125.5S82.2,307.3,39,382.4   C82.5,457,163.4,507.1,256,507.1z" id="XMLID_2965_"/><path class="st1" d="M78.5,330.7c-15.3,15.4-28.6,32.7-39.5,51.7c10.9,18.7,24.2,35.9,39.5,51.2V330.7z" id="XMLID_3617_"/><path class="st2" d="M382,290.6v136c0,16.7-14,30.4-30.7,30.4h-246c42,31,94.2,50.2,150.7,50.2   c92.6,0,173.7-50.2,217.3-124.8C451.3,344.4,419,312.6,382,290.6z" id="XMLID_3616_"/><polygon class="st3" id="XMLID_2864_" points="255.9,297.2 255.9,297.2 227.4,268.7 227.4,228.9 284.3,228.9 284.3,268.7  "/><path class="st3" d="M324.6,155.1h24.5c13.5,0,24.5-11,24.5-24.5v0c0-13.5-11-24.5-24.5-24.5h-24.5V155.1z" id="XMLID_2893_"/><path class="st3" d="M187.3,155.1h-24.5c-13.5,0-24.5-11-24.5-24.5v0c0-13.5,11-24.5,24.5-24.5h24.5V155.1z" id="XMLID_2892_"/><path class="st4" d="M256,238.8L256,238.8c-44.4,0-80.4-36-80.4-80.4v-55.9c0-44.4,36-80.4,80.4-80.4h0   c44.4,0,80.4,36,80.4,80.4v55.9C336.4,202.8,300.4,238.8,256,238.8z" id="XMLID_2890_"/><path class="st3" d="M255.8,22h0.1c-4.2,0-8.2,0.4-12.2,1c38.6,5.9,68.3,39.3,68.3,79.5v55.9   c0,40.3-29.6,73.7-68.2,79.6c4,0.6,8.1,1,12.2,1h-0.2c44.4,0,80.2-36.2,80.2-80.6v-55.9C336,58.1,300.2,22,255.8,22z" id="XMLID_2664_"/><g id="XMLID_2662_"><g id="XMLID_63_"><rect class="st5" height="10" id="XMLID_64_" width="25" x="211" y="115"/></g></g><g id="XMLID_2655_"><g id="XMLID_60_"><rect class="st5" height="19" id="XMLID_61_" width="10" x="231" y="135"/></g></g><g id="XMLID_2636_"><g id="XMLID_57_"><rect class="st5" height="10" id="XMLID_58_" width="25" x="276" y="115"/></g></g><g id="XMLID_2634_"><g id="XMLID_54_"><rect class="st5" height="19" id="XMLID_55_" width="10" x="271" y="135"/></g></g><rect class="st6" height="9.8" id="XMLID_2632_" width="9.8" x="344.3" y="125.7"/><rect class="st6" height="9.8" id="XMLID_2628_" width="9.8" x="157.9" y="125.7"/><ellipse class="st0" cx="256.1" cy="45.9" id="XMLID_2806_" rx="117.6" ry="41"/><path class="st2" d="M352.8,22.6c0.2,0.9,0.3,1.8,0.3,2.7c0,22.7-52.7,41-117.6,41c-40.1,0-75.5-7-96.8-17.7   c4,21.4,55,38.3,117.4,38.3c65,0,117.6-18.4,117.6-41C373.7,37.3,366,29.2,352.8,22.6z" id="XMLID_127_"/><path class="st7" d="M162.4,67.8h30.8v19.8c0,10.2-8.3,18.5-18.5,18.5h-12.4V67.8z" id="XMLID_2886_"/><path class="st7" d="M349.2,67.8h-30.8v19.8c0,10.2,8.3,18.5,18.5,18.5h12.4V67.8z" id="XMLID_2871_"/><path class="st1" d="M255.9,297.2L234.1,319l-51.2-51.3c14.4-4.4,29-7.5,44.6-9.2v10.2L255.9,297.2L255.9,297.2z" id="XMLID_2870_"/><path class="st1" d="M328.8,267.6l-51.3,51.2L256,297.2l28.5-28.5v-10.2C299.1,260.1,314.5,263.2,328.8,267.6z" id="XMLID_2868_"/><path class="st8" d="M265.8,307.1l-9.8-9.9l-9.8,9.7l-18.6,198.6c9.3,1.1,18.8,1.6,28.4,1.6   c9.5,0,18.9-0.5,28.2-1.6L265.8,307.1z" id="XMLID_3619_"/><path class="st8" d="M310.9,106.1H200.7c-21.1,0-38.3-17.1-38.3-38.3v0l186.8,0v0C349.2,89,332,106.1,310.9,106.1   z" id="XMLID_2809_"/><path class="st5" d="M246.2,106.1h-45.5c-21.1,0-38.3-17.1-38.3-38.3v0h122v0C284.4,89,267.3,106.1,246.2,106.1z" id="XMLID_986_"/><path class="st9" d="M328.8,47.5H182.8c-11.2,0-20.4,9.1-20.4,20.4v0h186.8v0C349.2,56.6,340.1,47.5,328.8,47.5z" id="XMLID_2807_"/><path class="st7" d="M264.1,47.5h-81.3c-11.2,0-20.4,9.1-20.4,20.4v0h122v0C284.4,56.6,275.3,47.5,264.1,47.5z" id="XMLID_3364_"/><circle class="st7" cx="256.3" cy="26.4" id="XMLID_2782_" r="10.7"/><path class="st5" d="M114.3,335.8l21.7-12.5l-15.4-26.7c-7.1,4.6-13.9,9.5-20.4,14.7L114.3,335.8z" id="XMLID_3278_"/><path class="st7" d="M136,323.3l21.7-12.5l-15.4-26.7c-7.5,3.8-14.7,8-21.7,12.5L136,323.3z" id="XMLID_912_"/><path class="st5" d="M157.6,310.8l21.7-12.5l-14.1-24.4c-7.9,3.1-15.5,6.5-23,10.3L157.6,310.8z" id="XMLID_911_"/><path class="st5" d="M346.8,273.8l-14.1,24.4l21.7,12.5l15.4-26.7C362.3,280.3,354.6,276.9,346.8,273.8z" id="XMLID_907_"/><path class="st7" d="M369.7,284.1l-15.4,26.7l21.7,12.5l15.4-26.7C384.4,292.1,377.2,287.9,369.7,284.1z" id="XMLID_904_"/><path class="st5" d="M391.4,296.6L376,323.3l21.7,12.5l14.2-24.5C405.3,306.1,398.5,301.2,391.4,296.6z" id="XMLID_913_"/><g id="XMLID_2741_"><rect class="st2" height="9.8" id="XMLID_3481_" width="65.7" x="316.3" y="377.1"/></g><g id="XMLID_2707_"><rect class="st2" height="9.8" id="XMLID_3477_" width="65.7" x="130.4" y="377.1"/></g><g id="XMLID_2706_"><g id="XMLID_21_"><path class="st7" d="M256.3,31.3c-0.8,0-1.5-0.2-2.3-0.5l-20.6-10.7l4.5-8.7l18.3,9.5l18.3-9.5l4.5,8.7     l-20.6,10.7C257.8,31.2,257,31.3,256.3,31.3z" id="XMLID_22_"/></g></g><path class="st5" d="M223.6,181.5h64.7v0c0-9.8-7.9-17.7-17.7-17.7h-29.4C231.5,163.8,223.6,171.7,223.6,181.5   L223.6,181.5z" id="XMLID_3347_"/><path class="st5" d="M243.4,457c12.4,0,22.6-10,22.6-22.3V307.1l-9.9-9.9l-9.9,9.7L232.1,457H243.4z" id="XMLID_2650_"/></g></svg>