<?xml version="1.0" standalone="no"?>
<!DOCTYPE svg PUBLIC "-//W3C//DTD SVG 20010904//EN"
 "http://www.w3.org/TR/2001/REC-SVG-20010904/DTD/svg10.dtd">
<svg version="1.0" xmlns="http://www.w3.org/2000/svg"
 width="512.000000pt" height="512.000000pt" viewBox="0 0 512.000000 512.000000"
 preserveAspectRatio="xMidYMid meet">
<metadata>
Created by potrace 1.14, written by Peter Selinger 2001-2017
</metadata>
<g transform="translate(0.000000,512.000000) scale(0.100000,-0.100000)"
fill="#000000" stroke="none">
<path d="M3886 4983 c-2 -2 -21 -6 -42 -8 -22 -2 -49 -6 -61 -9 -13 -3 -32 -8
-43 -10 -11 -3 -26 -8 -33 -13 -6 -4 -14 -8 -17 -8 -3 0 -53 -24 -110 -53 -58
-29 -114 -54 -125 -56 -11 -2 -40 -10 -65 -17 -25 -7 -54 -14 -65 -16 -11 -2
-36 -9 -55 -15 -19 -6 -37 -11 -40 -10 -3 0 -10 -4 -17 -10 -7 -5 -17 -7 -23
-3 -5 3 -10 2 -10 -4 0 -5 -9 -8 -20 -6 -11 2 -20 1 -20 -3 0 -4 -10 -8 -23
-9 -31 -3 -50 -8 -62 -14 -5 -4 -18 -5 -27 -4 -10 2 -18 -1 -18 -6 0 -5 -3 -8
-7 -7 -5 1 -30 -9 -58 -21 -27 -13 -60 -23 -72 -23 -13 0 -23 -5 -23 -10 0 -5
-3 -7 -8 -4 -4 2 -15 -2 -25 -9 -16 -11 -9 -13 44 -10 34 2 72 8 83 14 17 8
93 32 116 35 3 1 10 5 17 9 6 4 23 8 37 9 14 1 26 5 26 8 0 3 8 6 18 7 9 1 31
4 47 5 17 2 36 7 43 11 6 5 12 5 12 1 0 -3 7 -1 15 6 8 7 15 10 15 7 0 -4 18
0 39 8 22 7 42 11 45 8 3 -4 6 -2 6 4 0 5 7 10 15 10 21 0 29 -36 12 -55 -17
-20 -44 -91 -42 -112 1 -8 -5 -32 -12 -52 -6 -21 -10 -38 -8 -38 2 0 -3 -16
-11 -35 -8 -19 -14 -37 -14 -40 0 -3 0 -6 -1 -7 -2 -9 -9 -37 -14 -63 -3 -16
-9 -32 -13 -35 -4 -3 -9 -12 -10 -20 -2 -8 -5 -22 -7 -30 -2 -8 -10 -40 -19
-70 -8 -30 -12 -58 -10 -62 2 -3 0 -9 -6 -13 -5 -3 -10 -13 -10 -21 0 -17 -24
-45 -43 -48 -12 -3 -34 -11 -72 -26 -86 -34 -117 -48 -162 -77 -29 -18 -53
-30 -53 -27 0 3 -12 -4 -26 -15 -15 -12 -31 -21 -35 -21 -5 0 -18 -8 -29 -17
-11 -10 -24 -18 -28 -18 -11 0 -86 -47 -94 -59 -4 -6 -8 -7 -8 -2 0 4 -16 -4
-35 -18 -19 -15 -35 -24 -35 -21 0 3 -20 -8 -44 -25 -25 -16 -49 -30 -55 -30
-6 0 -11 -4 -11 -10 0 -5 -6 -10 -13 -10 -7 0 -30 -16 -52 -35 -22 -19 -43
-35 -48 -35 -4 0 -25 -19 -47 -41 -22 -23 -40 -38 -40 -34 0 4 -10 -3 -23 -16
-29 -29 -65 -59 -73 -59 -3 0 -11 -6 -18 -12 -7 -7 -28 -24 -46 -38 -19 -14
-51 -41 -71 -60 -55 -51 -63 -57 -87 -64 -12 -4 -22 -12 -22 -18 0 -6 -3 -9
-6 -6 -3 3 -16 -4 -28 -16 -13 -11 -49 -43 -81 -71 -31 -27 -62 -56 -69 -63
-6 -8 -36 -40 -66 -72 -64 -68 -94 -103 -93 -110 0 -7 -49 -72 -69 -91 -10 -9
-15 -19 -11 -23 3 -3 2 -6 -3 -6 -5 0 -18 -16 -28 -35 -11 -19 -23 -35 -28
-35 -4 0 -8 -7 -8 -15 0 -8 -4 -15 -10 -15 -5 0 -10 -6 -10 -14 0 -8 -13 -28
-30 -44 -16 -16 -26 -32 -23 -36 4 -3 1 -6 -6 -6 -7 0 -9 -4 -6 -10 3 -5 2
-10 -4 -10 -5 0 -12 -9 -16 -20 -6 -19 -180 -204 -187 -198 -3 3 -28 -19 -105
-92 -28 -28 -49 -50 -47 -50 2 0 -16 -20 -41 -45 -25 -25 -45 -49 -45 -53 0
-5 -10 -18 -22 -30 -38 -34 -49 -52 -43 -62 3 -6 -1 -10 -10 -10 -9 0 -13 -4
-10 -10 3 -5 1 -10 -4 -10 -6 0 -11 -7 -11 -15 0 -8 -4 -15 -9 -15 -5 0 -12
-8 -15 -17 -9 -27 -46 -67 -90 -97 -21 -14 -35 -26 -30 -26 5 0 -7 -14 -26
-30 -53 -46 -58 -50 -70 -50 -5 0 -10 -4 -10 -10 0 -5 -6 -10 -14 -10 -8 0
-16 -3 -18 -7 -2 -5 -25 -26 -53 -48 -27 -22 -57 -48 -67 -57 -9 -9 -27 -22
-39 -29 -81 -43 -147 -135 -140 -194 1 -12 143 -15 151 -4 5 7 35 12 58 10 16
-1 15 -16 -1 -33 -17 -18 -44 -62 -43 -69 1 -3 -5 -13 -12 -21 -14 -18 -7 -47
12 -44 7 1 19 7 27 14 104 89 117 96 148 71 13 -10 21 -19 18 -19 -9 0 38 -45
70 -67 30 -21 71 -27 88 -14 5 5 18 7 28 6 9 -2 17 1 17 6 0 5 3 8 8 7 13 -4
52 13 52 23 0 5 4 8 8 6 9 -2 54 31 106 78 65 59 84 73 90 68 3 -4 6 -1 6 5 0
6 13 18 29 27 16 8 35 20 43 27 8 7 27 20 43 29 58 30 80 44 87 54 4 6 8 7 8
3 0 -4 21 2 46 12 25 11 56 22 69 24 13 2 32 9 42 14 10 6 20 10 23 10 6 1 43
15 93 35 20 9 37 13 37 10 0 -3 6 -1 13 5 6 6 15 11 19 11 38 6 69 15 74 22 2
4 11 6 19 2 8 -3 15 1 15 8 0 7 3 9 6 6 4 -3 14 -2 24 3 9 5 32 12 51 15 18 3
36 9 39 13 8 11 30 15 85 16 36 1 59 8 82 26 32 23 38 24 195 22 90 -1 172 -3
183 -6 72 -15 85 -20 86 -35 2 -29 0 -65 -6 -106 -3 -22 -8 -51 -10 -65 -2
-14 -6 -35 -8 -46 -8 -31 -19 -97 -20 -111 0 -7 -4 -13 -9 -13 -5 0 -8 -6 -7
-12 1 -7 -2 -22 -6 -33 -12 -26 -7 -180 5 -180 1 0 3 -9 5 -20 2 -11 5 -27 8
-35 2 -8 7 -28 12 -45 4 -16 14 -38 21 -49 7 -10 10 -25 7 -32 -3 -8 0 -14 6
-14 6 0 11 -8 11 -19 0 -10 7 -36 17 -57 15 -37 21 -64 27 -124 2 -14 6 -33 9
-42 4 -10 10 -26 14 -35 3 -10 8 -31 10 -48 3 -16 8 -34 13 -40 4 -5 10 -26
13 -45 3 -19 11 -53 19 -76 8 -23 14 -48 12 -57 -1 -10 2 -17 6 -17 5 0 7 -9
5 -21 -2 -11 0 -32 6 -46 5 -15 12 -38 14 -52 13 -87 28 -127 58 -149 9 -7 15
-17 12 -22 -6 -9 21 -40 36 -40 7 0 13 28 8 43 0 1 6 14 13 28 8 15 13 58 13
107 0 45 4 82 8 82 5 0 5 5 1 12 -7 11 -16 99 -14 148 0 14 1 54 1 90 0 36 0
79 0 95 0 17 0 39 -1 50 -1 11 -2 74 -2 140 0 131 6 201 20 219 11 13 26 67
23 81 -19 79 -11 173 25 268 8 20 12 37 10 37 -2 0 6 29 19 65 13 36 24 67 25
70 1 7 9 32 17 53 3 9 5 20 5 24 -1 5 3 8 8 8 6 0 10 6 10 14 0 7 11 25 25 40
14 15 25 31 25 37 0 5 4 9 9 9 5 0 12 14 16 30 5 23 24 42 83 81 42 29 90 67
106 85 16 19 33 34 37 34 5 0 31 23 57 50 26 28 51 50 55 50 4 0 20 12 36 27
65 65 124 113 138 113 16 0 83 69 83 87 0 6 3 13 8 15 7 3 51 91 53 106 0 4 7
14 15 23 8 9 11 19 7 22 -3 4 -2 7 4 7 6 0 16 15 23 33 7 17 18 37 24 42 6 6
24 36 41 68 16 31 34 57 39 57 5 0 6 3 3 6 -3 4 2 18 13 32 11 13 17 28 15 32
-3 5 -1 11 5 15 5 3 10 15 10 26 0 10 4 19 8 19 5 0 9 6 9 13 0 6 9 32 21 57
20 44 60 150 67 180 2 8 4 15 5 15 1 0 4 9 6 20 5 18 8 41 18 111 1 11 6 25 9
32 4 6 6 22 3 36 -3 14 -1 28 3 30 4 3 7 37 6 76 0 39 2 73 6 76 4 2 6 12 4
22 -1 9 2 23 8 30 5 6 6 12 2 12 -4 0 -2 7 5 15 8 9 14 52 16 103 5 106 18
237 24 237 2 0 6 18 14 64 4 18 13 46 22 62 8 16 15 32 16 36 1 5 6 13 12 19
6 6 22 26 36 44 63 84 103 110 178 113 12 1 22 4 22 7 0 3 16 5 35 5 19 0 35
-4 35 -8 0 -5 4 -6 9 -2 5 3 12 1 16 -5 3 -5 15 -10 25 -10 10 0 20 -3 22 -7
2 -5 28 -19 58 -33 30 -14 58 -29 62 -35 4 -5 8 -6 8 -2 0 5 13 -1 29 -12 15
-11 31 -18 34 -14 4 3 13 1 20 -6 13 -10 72 -10 83 1 14 15 -68 128 -94 128
-4 0 -31 18 -60 40 -29 22 -56 40 -60 40 -4 0 -14 9 -22 20 -8 11 -18 20 -22
20 -17 0 -171 144 -162 152 2 3 -2 11 -11 18 -8 7 -15 20 -15 29 0 9 -5 22
-12 29 -14 14 -17 29 -22 93 -4 49 -20 70 -87 119 -37 28 -101 58 -137 65 -12
2 -27 7 -32 10 -10 6 -37 9 -188 19 -23 1 -44 1 -46 -1z m-1066 -3185 c-13
-24 -28 -46 -34 -50 -6 -4 -7 -8 -3 -8 5 0 1 -10 -7 -22 -9 -12 -16 -30 -16
-40 0 -10 -5 -18 -12 -18 -6 0 -8 -3 -5 -7 4 -3 1 -13 -6 -21 -10 -13 -9 -14
3 -7 12 7 13 6 3 -6 -7 -9 -14 -24 -16 -35 -1 -10 -6 -25 -10 -31 -5 -7 -5
-17 -2 -23 3 -5 2 -10 -4 -10 -5 0 -8 -8 -6 -19 2 -10 -2 -29 -9 -43 -12 -23
-16 -39 -17 -75 -1 -20 7 -78 11 -78 7 0 5 -63 -2 -77 -5 -10 -5 -18 -1 -18 4
0 9 -19 10 -42 1 -24 4 -61 7 -83 4 -22 9 -58 11 -80 3 -22 7 -58 11 -80 3
-22 6 -51 7 -65 1 -14 5 -29 8 -35 4 -9 5 -163 0 -232 -3 -57 -66 3 -66 62 0
22 -6 53 -14 70 -8 16 -16 39 -18 50 -3 27 -11 60 -13 60 -3 0 -10 57 -11 80
0 10 -3 24 -8 30 -4 5 -7 17 -6 25 1 8 -3 24 -9 35 -6 11 -9 26 -8 32 2 7 -1
13 -6 13 -9 0 -11 12 -14 141 l-3 97 30 11 c27 9 31 16 30 43 -1 18 -3 35 -4
38 -3 5 -11 73 -11 95 0 6 2 26 4 45 3 19 7 51 10 70 2 19 7 46 11 60 3 14 8
39 11 55 2 17 6 39 8 50 7 38 26 76 42 82 8 3 31 6 50 7 19 0 34 5 34 9 0 5 4
6 9 2 5 -3 13 0 16 6 5 7 12 6 23 -5 14 -14 14 -19 -8 -58z"/>
</g>
</svg>
